<svg id="Capa_1" enable-background="new 0 0 510.984 510.984" height="512" viewBox="0 0 510.984 510.984" width="512" xmlns="http://www.w3.org/2000/svg"><g><path d="m130.521 266.046h16.232c2.693 0 4.876-2.183 4.876-4.876v-53.573c0-2.693-2.183-4.876-4.876-4.876h-16.22v-.054h-.012v-16.178c0-2.693-2.183-4.876-4.876-4.876h-32.464c-2.693 0-4.876 2.183-4.876 4.876v16.178h-.141v.147h-20.882l-.093-.093h.007v-16.232c0-2.693-2.183-4.876-4.876-4.876h-32.464c-2.693 0-4.876 2.183-4.876 4.876v16.232h-16.073c-2.693 0-4.876 2.183-4.876 4.876v53.573c0 2.693 2.183 4.876 4.876 4.876h16.162l.054 16.248c.009 2.687 2.189 4.86 4.876 4.86h16.184.065v16.232c0 2.693 2.183 4.876 4.876 4.876h16.232v16.232c0 2.693 2.183 4.876 4.876 4.876h11.356c2.693 0 4.876-2.183 4.876-4.876v-16.232h16.073c2.693 0 4.876-2.183 4.876-4.876v-16.232h16.232c2.693 0 4.876-2.183 4.876-4.876z" fill="#eaa895"/><path d="m83.588 333.402h-11.356c-4.911 0-8.907-3.996-8.907-8.907v-12.201h-12.201c-4.912 0-8.907-3.996-8.907-8.907v-12.201h-12.218c-4.894 0-8.89-3.982-8.907-8.876l-.041-12.231h-12.144c-4.911 0-8.907-3.996-8.907-8.908v-53.573c0-4.911 3.996-8.907 8.907-8.907h12.042v-12.201c0-4.912 3.996-8.907 8.907-8.907h32.464c4.912 0 8.908 3.996 8.908 8.907v12.294h13.046v-12.294c0-4.912 3.996-8.907 8.907-8.907h32.465c4.912 0 8.907 3.996 8.907 8.907v12.201h12.201c4.911 0 8.907 3.996 8.907 8.907v53.573c0 4.912-3.996 8.908-8.907 8.908h-12.201v12.201c0 4.911-3.996 8.907-8.907 8.907h-12.201v12.201c0 4.912-3.996 8.907-8.907 8.907h-12.043v12.201c0 4.91-3.995 8.906-8.907 8.906zm-74.681-126.65c-.466 0-.844.379-.844.845v53.573c0 .466.379.845.844.845h16.162c2.221 0 4.024 1.797 4.031 4.018l.054 16.249c.001.464.38.841.845.841h16.184c2.226 0 4.096 1.805 4.096 4.031v16.232c0 .466.379.845.845.845h16.232c2.226 0 4.031 1.805 4.031 4.031v16.232c0 .466.379.845.844.845h11.356c.466 0 .845-.379.845-.845v-16.232c0-2.226 1.805-4.031 4.031-4.031h16.073c.465 0 .844-.379.844-.845v-16.232c0-2.226 1.805-4.031 4.031-4.031h16.232c.466 0 .845-.379.845-.844v-16.232c0-2.226 1.805-4.031 4.031-4.031h16.232c.465 0 .844-.379.844-.845v-53.573c0-.465-.379-.845-.844-.845h-16.22c-1.943 0-3.565-1.375-3.947-3.204-.063-.283-.097-.578-.097-.881v-16.178c0-.466-.379-.845-.845-.845h-32.462c-.465 0-.844.379-.844.845v16.178c0 1.12-.457 2.134-1.194 2.864-.737.807-1.799 1.314-2.978 1.314h-20.882c-1.073 0-2.101-.428-2.858-1.188l-.093-.093c-.824-.829-1.233-1.955-1.166-3.081v-15.994c0-.466-.379-.845-.845-.845h-32.465c-.465 0-.844.379-.844.845v16.232c0 2.226-1.805 4.031-4.031 4.031h-16.073z" fill="#31373d"/><path d="m308.183 266.046h16.232c2.693 0 4.876-2.183 4.876-4.876v-53.573c0-2.693-2.183-4.876-4.876-4.876h-16.22v-.054h-.012v-16.178c0-2.693-2.183-4.876-4.876-4.876h-32.465c-2.693 0-4.876 2.183-4.876 4.876v16.178h-.141v.147h-20.881l-.093-.093h.007v-16.232c0-2.693-2.183-4.876-4.876-4.876h-32.465c-2.693 0-4.876 2.183-4.876 4.876v16.232h-16.073c-2.693 0-4.876 2.183-4.876 4.876v53.573c0 2.693 2.183 4.876 4.876 4.876h16.162l.054 16.248c.009 2.687 2.189 4.86 4.876 4.86h16.184.065v16.232c0 2.693 2.183 4.876 4.876 4.876h16.232v16.232c0 2.693 2.183 4.876 4.876 4.876h11.356c2.693 0 4.876-2.183 4.876-4.876v-16.232h16.073c2.693 0 4.876-2.183 4.876-4.876v-16.232h16.232c2.693 0 4.876-2.183 4.876-4.876v-16.232" fill="#f9fbfc"/><g fill="#eaa895"><circle cx="313.474" cy="209.868" r="3.092"/><path d="m323.815 222.551c1.708 0 3.092-1.384 3.092-3.092s-1.384-3.091-3.092-3.091c-1.707 0-3.092 1.384-3.092 3.091s1.385 3.092 3.092 3.092z"/><path d="m313.474 226.709c-1.707 0-3.092 1.384-3.092 3.092s1.384 3.092 3.092 3.092 3.092-1.384 3.092-3.092-1.385-3.092-3.092-3.092z"/><path d="m323.815 236.299c-1.707 0-3.092 1.384-3.092 3.092s1.384 3.092 3.092 3.092 3.092-1.384 3.092-3.092c0-1.707-1.384-3.092-3.092-3.092z"/><path d="m313.474 246.641c-1.707 0-3.092 1.384-3.092 3.092s1.384 3.092 3.092 3.092 3.092-1.384 3.092-3.092-1.385-3.092-3.092-3.092z"/><path d="m323.815 256.232c-1.707 0-3.092 1.384-3.092 3.092 0 1.707 1.384 3.092 3.092 3.092s3.092-1.384 3.092-3.092-1.384-3.092-3.092-3.092z"/><path d="m293.541 186.844c-1.707 0-3.092 1.384-3.092 3.092s1.384 3.092 3.092 3.092 3.092-1.384 3.092-3.092-1.384-3.092-3.092-3.092z"/><path d="m303.883 196.435c-1.707 0-3.092 1.384-3.092 3.092s1.384 3.092 3.092 3.092c1.707 0 3.092-1.384 3.092-3.092s-1.385-3.092-3.092-3.092z"/><path d="m293.541 206.776c-1.707 0-3.092 1.384-3.092 3.092s1.384 3.092 3.092 3.092 3.092-1.384 3.092-3.092-1.384-3.092-3.092-3.092z"/><path d="m303.883 216.368c-1.707 0-3.092 1.384-3.092 3.091 0 1.708 1.384 3.092 3.092 3.092 1.707 0 3.092-1.384 3.092-3.092s-1.385-3.091-3.092-3.091z"/><path d="m293.541 226.709c-1.707 0-3.092 1.384-3.092 3.092s1.384 3.092 3.092 3.092 3.092-1.384 3.092-3.092-1.384-3.092-3.092-3.092z"/><path d="m303.883 236.299c-1.707 0-3.092 1.384-3.092 3.092s1.384 3.092 3.092 3.092c1.707 0 3.092-1.384 3.092-3.092 0-1.707-1.385-3.092-3.092-3.092z"/><path d="m293.541 246.641c-1.707 0-3.092 1.384-3.092 3.092s1.384 3.092 3.092 3.092 3.092-1.384 3.092-3.092-1.384-3.092-3.092-3.092z"/><path d="m303.883 256.232c-1.707 0-3.092 1.384-3.092 3.092 0 1.707 1.384 3.092 3.092 3.092 1.707 0 3.092-1.384 3.092-3.092s-1.385-3.092-3.092-3.092z"/><path d="m293.541 266.573c-1.707 0-3.092 1.384-3.092 3.092 0 1.707 1.384 3.092 3.092 3.092s3.092-1.384 3.092-3.092c0-1.707-1.384-3.092-3.092-3.092z"/><path d="m303.883 276.164c-1.707 0-3.092 1.384-3.092 3.092s1.384 3.092 3.092 3.092c1.707 0 3.092-1.384 3.092-3.092 0-1.707-1.385-3.092-3.092-3.092z"/><path d="m273.609 186.844c-1.708 0-3.092 1.384-3.092 3.092s1.384 3.092 3.092 3.092c1.707 0 3.092-1.384 3.092-3.092s-1.384-3.092-3.092-3.092z"/><path d="m283.951 196.435c-1.708 0-3.092 1.384-3.092 3.092s1.384 3.092 3.092 3.092c1.707 0 3.092-1.384 3.092-3.092-.001-1.708-1.385-3.092-3.092-3.092z"/><path d="m273.609 206.776c-1.708 0-3.092 1.384-3.092 3.092s1.384 3.092 3.092 3.092c1.707 0 3.092-1.384 3.092-3.092s-1.384-3.092-3.092-3.092z"/><path d="m283.951 216.368c-1.708 0-3.092 1.384-3.092 3.091 0 1.708 1.384 3.092 3.092 3.092 1.707 0 3.092-1.384 3.092-3.092-.001-1.708-1.385-3.091-3.092-3.091z"/><path d="m273.609 226.709c-1.708 0-3.092 1.384-3.092 3.092s1.384 3.092 3.092 3.092c1.707 0 3.092-1.384 3.092-3.092s-1.384-3.092-3.092-3.092z"/><path d="m283.951 236.299c-1.708 0-3.092 1.384-3.092 3.092s1.384 3.092 3.092 3.092c1.707 0 3.092-1.384 3.092-3.092-.001-1.707-1.385-3.092-3.092-3.092z"/><path d="m273.609 246.641c-1.708 0-3.092 1.384-3.092 3.092s1.384 3.092 3.092 3.092c1.707 0 3.092-1.384 3.092-3.092s-1.384-3.092-3.092-3.092z"/><path d="m283.951 256.232c-1.708 0-3.092 1.384-3.092 3.092 0 1.707 1.384 3.092 3.092 3.092 1.707 0 3.092-1.384 3.092-3.092-.001-1.708-1.385-3.092-3.092-3.092z"/><path d="m273.609 266.573c-1.708 0-3.092 1.384-3.092 3.092 0 1.707 1.384 3.092 3.092 3.092 1.707 0 3.092-1.384 3.092-3.092 0-1.707-1.384-3.092-3.092-3.092z"/><path d="m283.951 276.164c-1.708 0-3.092 1.384-3.092 3.092s1.384 3.092 3.092 3.092c1.707 0 3.092-1.384 3.092-3.092-.001-1.707-1.385-3.092-3.092-3.092z"/><path d="m273.609 286.506c-1.708 0-3.092 1.384-3.092 3.092s1.384 3.092 3.092 3.092c1.707 0 3.092-1.384 3.092-3.092s-1.384-3.092-3.092-3.092z"/><path d="m283.951 296.097c-1.708 0-3.092 1.384-3.092 3.092s1.384 3.092 3.092 3.092c1.707 0 3.092-1.384 3.092-3.092-.001-1.708-1.385-3.092-3.092-3.092z"/><path d="m256.768 209.868c0-.793-.304-1.511-.796-2.055v-4.999h-11.029l-.093-.093h.007v-16.232c0-2.693-2.183-4.876-4.876-4.876h-32.465c-2.693 0-4.876 2.183-4.876 4.876v16.232h-16.073c-2.693 0-4.876 2.183-4.876 4.876v53.573c0 2.693 2.183 4.876 4.876 4.876h16.162l.054 16.249c.009 2.686 2.189 4.859 4.876 4.859h16.248v16.232c0 2.693 2.183 4.876 4.876 4.876h16.232v16.232c0 2.693 2.183 4.876 4.876 4.876h6.079v-17.786c.492-.544.796-1.261.796-2.054 0-.794-.304-1.511-.796-2.055v-15.823c.492-.544.796-1.262.796-2.055s-.304-1.511-.796-2.055v-15.822c.492-.544.796-1.261.796-2.055s-.304-1.511-.796-2.055v-15.823c.492-.544.796-1.262.796-2.055s-.304-1.511-.796-2.055v-15.823c.492-.544.796-1.261.796-2.055s-.304-1.511-.796-2.054v-15.823c.495-.543.798-1.261.798-2.054z"/><path d="m264.018 216.368c-1.707 0-3.092 1.384-3.092 3.091 0 1.708 1.384 3.092 3.092 3.092s3.092-1.384 3.092-3.092-1.384-3.091-3.092-3.091z"/><path d="m264.018 236.299c-1.707 0-3.092 1.384-3.092 3.092s1.384 3.092 3.092 3.092 3.092-1.384 3.092-3.092c0-1.707-1.384-3.092-3.092-3.092z"/><path d="m264.018 256.232c-1.707 0-3.092 1.384-3.092 3.092 0 1.707 1.384 3.092 3.092 3.092s3.092-1.384 3.092-3.092-1.384-3.092-3.092-3.092z"/><circle cx="264.018" cy="279.256" r="3.092"/><path d="m264.018 296.097c-1.707 0-3.092 1.384-3.092 3.092s1.384 3.092 3.092 3.092 3.092-1.384 3.092-3.092-1.384-3.092-3.092-3.092z"/><path d="m260.926 319.121c0 1.708 1.384 3.092 3.092 3.092.817 0 1.555-.323 2.108-.841v-4.502c-.553-.518-1.29-.841-2.108-.841-1.707 0-3.092 1.384-3.092 3.092z"/></g><path d="m261.25 333.402h-11.356c-4.912 0-8.908-3.996-8.908-8.907v-12.201h-12.201c-4.912 0-8.907-3.996-8.907-8.907v-12.201h-12.218c-4.895 0-8.891-3.983-8.907-8.877l-.041-12.23h-12.144c-4.912 0-8.908-3.996-8.908-8.908v-53.573c0-4.911 3.996-8.907 8.908-8.907h12.041v-12.201c0-4.912 3.996-8.907 8.907-8.907h32.465c4.912 0 8.907 3.996 8.907 8.907v12.294h13.046v-12.294c0-4.912 3.996-8.907 8.907-8.907h32.464c4.912 0 8.907 3.996 8.907 8.907v12.201h12.201c4.912 0 8.908 3.996 8.908 8.907v53.573c0 4.912-3.996 8.908-8.908 8.908h-12.201v12.201c0 4.911-3.996 8.907-8.907 8.907h-12.201v12.201c0 4.912-3.996 8.907-8.908 8.907h-12.042v12.201c.003 4.91-3.993 8.906-8.904 8.906zm-74.681-126.65c-.466 0-.845.379-.845.845v53.573c0 .466.379.845.845.845h16.162c2.221 0 4.024 1.797 4.031 4.018l.054 16.249c.001.464.38.841.844.841h16.184c2.226 0 4.096 1.805 4.096 4.031v16.232c0 .466.379.845.845.845h16.232c2.226 0 4.031 1.805 4.031 4.031v16.232c0 .466.379.845.845.845h11.356c.466 0 .844-.379.844-.845v-16.232c0-2.226 1.805-4.031 4.031-4.031h16.073c.466 0 .845-.379.845-.845v-16.232c0-2.226 1.805-4.031 4.031-4.031h16.232c.466 0 .845-.379.845-.844v-16.232c0-2.226 1.805-4.031 4.031-4.031h16.232c.466 0 .845-.379.845-.845v-53.573c0-.465-.379-.845-.845-.845h-16.22c-1.942 0-3.564-1.374-3.946-3.202-.064-.285-.098-.58-.098-.883v-16.178c0-.466-.379-.845-.845-.845h-32.464c-.466 0-.845.379-.845.845v16.178c0 1.12-.457 2.134-1.194 2.864-.737.807-1.799 1.314-2.978 1.314h-20.881c-1.069 0-2.094-.425-2.851-1.18l-.091-.094c-.831-.832-1.242-1.965-1.173-3.097v-15.986c0-.466-.379-.845-.845-.845h-32.465c-.466 0-.845.379-.845.845v16.232c0 2.226-1.805 4.031-4.031 4.031z" fill="#31373d"/><path d="m485.844 266.046h16.232c2.693 0 4.876-2.183 4.876-4.876v-53.573c0-2.693-2.183-4.876-4.876-4.876h-16.22v-.054h-.012v-16.178c0-2.693-2.183-4.876-4.876-4.876h-32.465c-2.693 0-4.876 2.183-4.876 4.876v16.178h-.141v.147h-20.881l-.093-.093h.007v-16.232c0-2.693-2.183-4.876-4.876-4.876h-32.465c-2.693 0-4.876 2.183-4.876 4.876v16.232h-16.072c-2.693 0-4.876 2.183-4.876 4.876v53.573c0 2.693 2.183 4.876 4.876 4.876h16.162l.054 16.248c.009 2.687 2.189 4.86 4.876 4.86h16.184.064v16.232c0 2.693 2.183 4.876 4.876 4.876h16.232v16.232c0 2.693 2.183 4.876 4.876 4.876h11.356c2.693 0 4.876-2.183 4.876-4.876v-16.232h16.073c2.693 0 4.876-2.183 4.876-4.876v-16.232h16.232c2.693 0 4.876-2.183 4.876-4.876v-16.232" fill="#f9fbfc"/><path d="m438.911 333.402h-11.356c-4.912 0-8.908-3.996-8.908-8.907v-12.201h-12.201c-4.911 0-8.907-3.996-8.907-8.907v-12.201h-12.217c-4.895 0-8.891-3.983-8.907-8.877l-.041-12.23h-12.144c-4.911 0-8.907-3.996-8.907-8.908v-53.573c0-4.911 3.996-8.907 8.907-8.907h12.042v-12.201c0-4.912 3.996-8.907 8.907-8.907h32.465c4.912 0 8.907 3.996 8.907 8.907v12.294h13.046v-12.294c0-4.912 3.996-8.907 8.907-8.907h32.465c4.912 0 8.907 3.996 8.907 8.907v12.201h12.201c4.911 0 8.907 3.996 8.907 8.907v53.573c0 4.912-3.996 8.908-8.907 8.908h-12.201v12.201c0 4.911-3.996 8.907-8.907 8.907h-12.201v12.201c0 4.912-3.996 8.907-8.908 8.907h-12.041v12.201c-.001 4.91-3.996 8.906-8.908 8.906zm-74.681-126.65c-.465 0-.844.379-.844.845v53.573c0 .466.379.845.844.845h16.162c2.221 0 4.024 1.797 4.031 4.018l.054 16.249c.001.464.38.841.845.841h16.184c2.226 0 4.096 1.805 4.096 4.031v16.232c0 .466.379.845.844.845h16.232c2.226 0 4.031 1.805 4.031 4.031v16.232c0 .466.379.845.845.845h11.356c.466 0 .845-.379.845-.845v-16.232c0-2.226 1.805-4.031 4.031-4.031h16.072c.466 0 .845-.379.845-.845v-16.232c0-2.226 1.805-4.031 4.031-4.031h16.232c.466 0 .845-.379.845-.844v-16.232c0-2.226 1.805-4.031 4.031-4.031h16.232c.465 0 .844-.379.844-.845v-53.573c0-.465-.379-.845-.844-.845h-16.22c-1.942 0-3.564-1.374-3.946-3.202-.064-.285-.098-.58-.098-.883v-16.178c0-.466-.379-.845-.845-.845h-32.465c-.466 0-.845.379-.845.845v16.178c0 1.118-.455 2.129-1.189 2.859-.738.811-1.801 1.319-2.983 1.319h-20.882c-1.069 0-2.094-.425-2.851-1.18l-.093-.093c-.831-.832-1.242-1.965-1.173-3.097v-15.986c0-.466-.379-.845-.845-.845h-32.465c-.466 0-.844.379-.844.845v16.232c0 2.226-1.805 4.031-4.031 4.031h-16.069z" fill="#31373d"/></g></svg>